<?xml version="1.0" standalone="no"?><!DOCTYPE svg PUBLIC "-//W3C//DTD SVG 1.1//EN" "http://www.w3.org/Graphics/SVG/1.1/DTD/svg11.dtd"><svg t="1534924384173" class="icon" style="" viewBox="0 0 1024 1024" version="1.1" xmlns="http://www.w3.org/2000/svg" p-id="9535" xmlns:xlink="http://www.w3.org/1999/xlink" width="16" height="16"><defs><style type="text/css"></style></defs><path d="M858.9 679.3c-2.9 5.3-7.8 9.1-13.6 10.7L783 706.7h-0.1c-38.9-101.3-97.7-191.8-175-269.2-77.4-77.3-167.9-136.1-269.2-175v-0.1l16.7-62.3c2.6-9.6 11.3-16.2 20.9-16.2 2.3 0 4.4 0.3 6.4 1.1C495.3 221.4 595 282.4 679 366.3S824 550 860.4 662.6c1.8 5.5 1.3 11.4-1.5 16.7z" fill="#FFC38D" p-id="9536"></path><path d="M621.7 747.1l-97.5 26.1c-8.8 2.3-18.4 0.3-24.7-6.2-25.4-26.1-31.7-66.9-12.6-100 11.1-19.4 29.1-33.1 50.6-38.9 21.6-5.8 44-2.8 63.3 8.3 19.4 11.2 33.1 29.2 38.9 50.8 3.8 14 3.8 28.4 0.3 42.1-2.3 8.8-9.5 15.5-18.3 17.8z" fill="#FF9C8E" p-id="9537"></path><path d="M728 721.4c12.8-3.4 19.4-17.4 14.2-29.6-37.1-86.4-89.8-164.2-157.1-231.4-67.2-67.3-145-120-231.4-157.1-12.2-5.2-26.1 1.4-29.6 14.2L284.5 465c1.3 0.5 2.5 1.3 3.5 2.3 42.8 36 48.5 100.1 12.5 143-15.6 18.7-37.4 31-61.2 35-0.9 0.1-1.8 0.2-2.7 0.2h-0.4L186 832.9c-2.4 9 1.3 15.6 3.8 18.8 4.1 5.4 10.5 8.6 17.1 8.6 1.9 0 3.9-0.2 5.9-0.8l272.4-73c3.6-1 5.3-5.3 3.1-8.3-23.2-31.6-27.1-75.1-6.3-111.1 28-48.5 90.3-65.2 138.7-37.1 23.5 13.5 40.3 35.4 47.3 61.6 3.3 12.4 4.2 25 2.8 37.4-0.4 3.9 3 7 6.7 6l50.5-13.6z" fill="#FFE2A3" p-id="9538"></path><path d="M268.3 596.6c-8.6 10.2-19 18.7-30.5 24.9-6.2 3.4-13.5-2.7-11.7-9.5l36.6-136.6c1.9-6.9 11.3-8.4 15-2.3 23 37.8 20.5 87.7-9.4 123.5z" fill="#FFA575" p-id="9539"></path><path d="M306.6 746.8c0 12.8-6.5 24.7-17.8 31.9-12.3 7.9-28.8 7.4-40.9-0.9-19.9-13.7-21.7-41.3-5.5-57.6 7.1-7.1 16.5-11.1 26.5-11.1 10.1 0 19.4 4 26.5 11.1 7.3 7.1 11.2 16.6 11.2 26.6z" fill="#D1EA7A" p-id="9540"></path><path d="M475 508.3c-14.8 14.7-40.5 14.7-55.2 0-15.2-15.2-15.2-40 0-55.2 7.3-7.4 17.1-11.5 27.6-11.5 10.4 0 20.2 4.1 27.6 11.5 15.3 15.1 15.3 39.9 0 55.2z" fill="#FFFEEA" p-id="9541"></path><path d="M195.4 877c-12.7 0-24.8-5-34.1-14.3-12.4-12.4-17.1-30-12.6-46.9l169.5-632.6c3.4-12.9 12.1-23.9 23.8-30.2 11.7-6.4 25.1-7.7 37.7-3.6 6.7 2.2 13.4 4.4 20.1 6.8 5.6 2 8.5 8.1 6.5 13.7s-8.1 8.5-13.7 6.5c-6.5-2.3-13-4.5-19.5-6.6-6.9-2.2-14.4-1.5-20.8 2-6.6 3.6-11.4 9.6-13.3 16.9L169.5 821.3c-2.5 9.5 0.1 19.3 7 26.2s16.7 9.6 26.2 7L835.3 685c7.3-2 13.3-6.7 16.9-13.4 3.5-6.5 4.2-13.9 2-20.8-36.7-113.4-98.1-213.8-182.7-298.3-73.7-73.7-136.1-119.2-208.6-152.1-5.4-2.4-7.8-8.8-5.3-14.2 2.4-5.4 8.8-7.8 14.2-5.3 74 33.6 140.3 81.8 214.9 156.5 87 87 150.2 190.3 187.9 306.9 4.1 12.6 2.8 26-3.6 37.7-6.4 11.7-17.4 20.4-30.3 23.8L208.2 875.3c-4.2 1.1-8.5 1.7-12.8 1.7z" fill="#B55A3C" p-id="9542"></path><path d="M761.6 726.6c-4.4 0-8.5-2.7-10.1-7.1-37.5-103.2-96-195.1-174-273.1s-169.9-136.5-273.1-174c-5.6-2-8.5-8.2-6.4-13.8 2-5.6 8.2-8.4 13.8-6.4 106.2 38.6 200.7 98.8 280.9 179 80.2 80.2 140.5 174.8 179 280.9 2 5.6-0.9 11.7-6.4 13.8-1.2 0.5-2.4 0.7-3.7 0.7zM515.8 792.5c-1.8 0-3.7-0.5-5.4-1.4-45.9-26.5-61.7-85.5-35.2-131.4 12.8-22.2 33.6-38.2 58.4-44.8 24.8-6.7 50.7-3.2 73 9.6 45.9 26.5 61.7 85.4 35.2 131.4-3 5.1-9.5 6.9-14.7 3.9-5.1-3-6.9-9.5-3.9-14.7 20.6-35.7 8.3-81.4-27.3-102-17.3-10-37.4-12.6-56.7-7.5-19.3 5.2-35.4 17.5-45.4 34.8-20.6 35.7-8.3 81.4 27.3 102 5.1 3 6.9 9.5 3.9 14.7-1.9 3.5-5.5 5.4-9.2 5.4zM225.3 629.9c-5.2 0-9.7-3.7-10.6-9-1-5.8 3-11.4 8.8-12.3 17.6-2.9 33.6-12 45.1-25.7 26.5-31.6 22.3-78.8-9.2-105.2-4.5-3.8-5.1-10.6-1.3-15.1s10.6-5.1 15.1-1.3c40.6 34.1 45.9 94.9 11.9 135.5-14.8 17.6-35.4 29.4-58 33.1h-1.8zM267.8 796.1c-13 0-25.2-5.1-34.4-14.3-19-19-19-49.9 0-68.9 9.2-9.2 21.4-14.3 34.4-14.3s25.2 5.1 34.4 14.3c19 19 19 49.9 0 68.9-9.2 9.2-21.4 14.3-34.4 14.3z m0-75.9c-7.3 0-14.1 2.8-19.3 8-10.6 10.6-10.6 27.9 0 38.5 10.3 10.3 28.2 10.3 38.5 0 10.6-10.6 10.6-27.9 0-38.5-5.1-5.2-11.9-8-19.2-8z" fill="#B55A3C" p-id="9543"></path><path d="M446.8 527.2c-13 0-25.2-5.1-34.4-14.3-9.2-9.2-14.3-21.4-14.3-34.4s5.1-25.2 14.3-34.4c9.2-9.2 21.4-14.3 34.4-14.3s25.2 5.1 34.4 14.3c9.2 9.2 14.3 21.4 14.3 34.4s-5.1 25.2-14.3 34.4c-9.2 9.2-21.4 14.3-34.4 14.3z m0-76c-7.3 0-14.1 2.8-19.3 8s-8 12-8 19.3c0 7.3 2.8 14.1 8 19.3 10.3 10.3 28.2 10.3 38.5 0 5.1-5.1 8-12 8-19.3 0-7.3-2.8-14.1-8-19.3s-11.9-8-19.2-8z" fill="#B55A3C" p-id="9544"></path></svg>